<svg xmlns="http://www.w3.org/2000/svg" fill-rule="evenodd" stroke-linejoin="round" stroke-miterlimit="1.4" clip-rule="evenodd" viewBox="0 0 16 16"><path d="M8 0a8 8 0 0 0-2.5 15.6c.4 0 .5-.2.5-.4v-1.4c-2.2.5-2.7-1-2.7-1-.4-1-.9-1.2-.9-1.2-.7-.5 0-.5 0-.5.9 0 1.3.8 1.3.8.7 1.3 1.9 1 2.3.7.1-.5.3-.9.5-1-1.7-.3-3.6-1-3.6-4 0-.9.3-1.6.8-2.2 0-.2-.3-1 0-2 0 0 .8-.3 2.3.7a7.7 7.7 0 0 1 4 0c1.5-1 2.2-.8 2.2-.8a3 3 0 0 1 0 2.1c.6.6.9 1.3.9 2.2 0 3-1.9 3.7-3.7 4 .3.2.6.7.6 1.4v2.2c0 .2.1.5.5.4A8 8 0 0 0 8 0"/></svg>