<svg xmlns="http://www.w3.org/2000/svg" width="512" height="512"><path fill="#010101" d="M480 208.2a37.2 37.2 0 1 1-74.4 0 37.2 37.2 0 0 1 74.4 0zM442.6 139c-38.1 0-69 30.7-69.4 68.7l-43.2 62-5.4-.3c-9.7 0-18.7 2.7-26.4 7.3L102.4 198a51.9 51.9 0 1 0-24.2 55.6L274 332.2a51.9 51.9 0 0 0 102.1-5.9l66.5-48.6a69.4 69.4 0 1 0 0-138.7zm0 22.9a46.5 46.5 0 1 1 0 93 46.5 46.5 0 0 1 0-93zm-390.8 9c14.6 0 27.3 8.2 33.7 20.2l-18.9-7.6v.1a30.2 30.2 0 0 0-22.6 56v.1l16.1 6.4a38 38 0 1 1-8.3-75.2zm272.8 112.2a38 38 0 1 1 0 76.2 37.8 37.8 0 0 1-33.7-20.3l18.8 7.6a30.3 30.3 0 1 0 22.5-56.2l-15.9-6.4c2.8-.5 5.5-.9 8.3-.9z"/></svg>