<svg xmlns="http://www.w3.org/2000/svg" version="1" viewBox="0 0 512 512">
    <path d="M48 66l-2 5-1 5a494 494 0 0 0 6 91v5a137 137 0 0 0 3 15l3 12 1 5 1 4 1 5 2 8a211 211 0 0 1 4 15l1 7 1 3 1 1v4l1 3 1 2 1 1v1l1 2 2 8 3 7v3l2 3 1 3a104 104 0 0 0 7 17 634 634 0 0 0 32 60c6 12 35 41 49 51l7 5 6 4 8 4 7 4 6 3a101 101 0 0 0 23 9 140 140 0 0 1 10 2l18 4c15 2 46 2 58 0l6-1 7-2h2l4-1 4-2 6-1a78 78 0 0 0 21-11c2 0 17-12 23-18 3-3 5-4 7-4l7 2 2 1h1l9 2 2 1 8 2 6 1 23 2c8 0 10-2 14-9 3-5 3-6 3-15 0-6 0-7-3-11-2-3-5-5-11-6l-6-1h-4l-16-4-8-2h-2l-1-1h-1l-2-1-7-2-3-1a378 378 0 0 0-4-62v-5a117 117 0 0 0-7-24l-5-13-2-6-14-27c-4-8-14-22-21-31a262 262 0 0 0-45-38l-1-1-11-5-2-1-2-1-2-1-2-1-5-2a122 122 0 0 0-16-5h-3l-2-1-2-1-4-1-5-1h-2l-7-1-13-3-6-1-6-1a88 88 0 0 0-13-2h-6l-3-1-3-1-5-1h-5l-4-1-2-1h-2l-3-1h-4l-10-3-4-1-5-1-3-1h-1l-2-1-4-2-4-1c-2 0-5-1-7-3l-4-1a152 152 0 0 1-43-25 290 290 0 0 1-26-22l-3 3zm103 166a375 375 0 0 0 55 44l1 1 2 1 12 8 13 9 4 2 1 1 1 1 4 2 13 8 4 2 16 9a128 128 0 0 1 11 5l1 1 2 1 11 5a128 128 0 0 0 13 6l10 4 3 2h2l3 1 13 6a1953 1953 0 0 1 24 10 39 39 0 0 1-7 19c-2 2-3 2-6 1l-4-1-2-1-3-1-2-1h-3l-2-1h-1l-3-2-2-1-4-1a59 59 0 0 0-6-3l-3-1a866 866 0 0 1-64-36 501 501 0 0 1-52-41 746 746 0 0 1-67-70l12 11z"/>
</svg>